<?xml version="1.0" encoding="UTF-8" standalone="no"?>
<!DOCTYPE svg PUBLIC "-//W3C//DTD SVG 1.1//EN" "http://www.w3.org/Graphics/SVG/1.1/DTD/svg11.dtd">
<svg width="100%" height="100%" viewBox="0 0 500 500" version="1.1" xmlns="http://www.w3.org/2000/svg" xmlns:xlink="http://www.w3.org/1999/xlink" xml:space="preserve" xmlns:serif="http://www.serif.com/" style="fill-rule:evenodd;clip-rule:evenodd;stroke-linejoin:round;stroke-miterlimit:2;">
    <g transform="matrix(1.1176,0,0,1.13968,-35.1253,7.66938)">
        <path d="M448.848,431.989C468.481,411.311 478.817,387.854 478.817,363.977C478.817,288.904 378.583,227.955 255.123,227.955C131.663,227.955 31.429,288.904 31.429,363.977C31.429,387.854 41.765,411.311 61.399,431.989L448.848,431.989Z" style="fill:rgb(0,147,249);"/>
        <path d="M448.848,431.989C468.481,411.311 478.817,387.854 478.817,363.977C478.817,288.904 378.583,227.955 255.123,227.955C131.663,227.955 31.429,288.904 31.429,363.977C31.429,387.854 41.765,411.311 61.399,431.989L448.848,431.989ZM438.584,410.053C450.113,395.696 456.448,380.036 456.448,363.977C456.448,340.045 442.823,318.357 421.188,300.415C383.775,269.388 323.185,249.891 255.123,249.891C187.062,249.891 126.471,269.388 89.058,300.415C67.423,318.357 53.799,340.045 53.799,363.977C53.799,380.036 60.133,395.696 71.662,410.053L438.584,410.053Z" style="fill:white;"/>
    </g>
    <g transform="matrix(1.07302,0,0,1.07302,-5.81065,-45.2389)">
        <circle cx="238.403" cy="158.655" r="116.494" style="fill:rgb(0,147,249);"/>
        <path d="M238.403,42.16C302.698,42.16 354.897,94.36 354.897,158.655C354.897,222.949 302.698,275.149 238.403,275.149C174.109,275.149 121.909,222.949 121.909,158.655C121.909,94.36 174.109,42.16 238.403,42.16ZM238.403,65.459C289.839,65.459 331.599,107.219 331.599,158.655C331.599,210.09 289.839,251.85 238.403,251.85C186.967,251.85 145.208,210.09 145.208,158.655C145.208,107.219 186.967,65.459 238.403,65.459Z" style="fill:white;"/>
    </g>
</svg>
