<?xml version="1.0" encoding="UTF-8" standalone="no"?>
<!DOCTYPE svg PUBLIC "-//W3C//DTD SVG 1.1//EN" "http://www.w3.org/Graphics/SVG/1.1/DTD/svg11.dtd">
<svg width="100%" height="100%" viewBox="0 0 500 500" version="1.1" xmlns="http://www.w3.org/2000/svg" xmlns:xlink="http://www.w3.org/1999/xlink" xml:space="preserve" xmlns:serif="http://www.serif.com/" style="fill-rule:evenodd;clip-rule:evenodd;stroke-linejoin:round;stroke-miterlimit:2;">
    <path d="M298.13,4.677C266.346,-1.559 233.654,-1.559 201.87,4.677L190.719,60.834C162.873,69.56 137.298,84.326 115.818,104.078L61.609,85.656C40.317,110.064 23.97,138.377 13.479,169.021L56.537,206.756C50.171,235.234 50.171,264.766 56.537,293.244L13.479,330.979C23.97,361.623 40.317,389.936 61.609,414.344L115.818,395.922C137.298,415.674 162.873,430.44 190.719,439.166L201.87,495.323C233.654,501.559 266.346,501.559 298.13,495.323L309.281,439.166C337.127,430.44 362.702,415.674 384.182,395.922L438.391,414.344C459.683,389.936 476.03,361.623 486.521,330.979L443.463,293.244C449.829,264.766 449.829,235.234 443.463,206.756L486.521,169.021C476.03,138.377 459.683,110.064 438.391,85.656L384.182,104.078C362.702,84.326 337.127,69.56 309.281,60.834L298.13,4.677ZM250,148.88C305.809,148.88 351.12,194.191 351.12,250C351.12,305.809 305.809,351.12 250,351.12C194.191,351.12 148.88,305.809 148.88,250C148.88,194.191 194.191,148.88 250,148.88Z" style="fill:rgb(0,147,249);"/>
    <path d="M298.13,4.677C266.346,-1.559 233.654,-1.559 201.87,4.677L190.719,60.834C162.873,69.56 137.298,84.326 115.818,104.078L61.609,85.656C40.317,110.064 23.97,138.377 13.479,169.021L56.537,206.756C50.171,235.234 50.171,264.766 56.537,293.244L13.479,330.979C23.97,361.623 40.317,389.936 61.609,414.344L115.818,395.922C137.298,415.674 162.873,430.44 190.719,439.166L201.87,495.323C233.654,501.559 266.346,501.559 298.13,495.323L309.281,439.166C337.127,430.44 362.702,415.674 384.182,395.922L438.391,414.344C459.683,389.936 476.03,361.623 486.521,330.979L443.463,293.244C449.829,264.766 449.829,235.234 443.463,206.756L486.521,169.021C476.03,138.377 459.683,110.064 438.391,85.656L384.182,104.078C362.702,84.326 337.127,69.56 309.281,60.834L298.13,4.677ZM277.001,26.628C259.067,24.458 240.935,24.458 222.999,26.628L215.24,65.703C213.459,74.673 206.922,81.955 198.195,84.69C173.861,92.316 151.511,105.22 132.74,122.481C126.008,128.671 116.433,130.691 107.774,127.749L70.054,114.93C59.209,129.377 50.143,145.079 43.053,161.697L73.014,187.954C79.892,193.982 82.93,203.284 80.935,212.209C75.372,237.096 75.372,262.904 80.935,287.791C82.93,296.716 79.892,306.018 73.014,312.046L43.053,338.303C50.142,354.918 59.207,370.621 70.054,385.07L107.774,372.251C116.433,369.309 126.008,371.329 132.74,377.519C151.511,394.78 173.861,407.684 198.195,415.31C206.922,418.045 213.459,425.327 215.24,434.297L222.999,473.372C240.933,475.542 259.065,475.542 277.001,473.372L284.76,434.297C286.541,425.327 293.078,418.045 301.805,415.31C326.139,407.684 348.489,394.78 367.26,377.519C373.992,371.329 383.567,369.309 392.226,372.251L429.946,385.07C440.791,370.623 449.857,354.921 456.947,338.303L426.986,312.046C420.108,306.018 417.07,296.716 419.065,287.791C424.628,262.904 424.628,237.096 419.065,212.209C417.07,203.284 420.108,193.982 426.986,187.954L456.947,161.697C449.858,145.082 440.793,129.379 429.946,114.93L392.226,127.749C383.567,130.691 373.992,128.671 367.26,122.481C348.489,105.22 326.139,92.316 301.805,84.69C293.078,81.955 286.541,74.673 284.76,65.703L277.001,26.628ZM250,123.88C180.393,123.88 123.88,180.393 123.88,250C123.88,319.607 180.393,376.12 250,376.12C319.607,376.12 376.12,319.607 376.12,250C376.12,180.393 319.607,123.88 250,123.88ZM250,148.88C305.809,148.88 351.12,194.191 351.12,250C351.12,305.809 305.809,351.12 250,351.12C194.191,351.12 148.88,305.809 148.88,250C148.88,194.191 194.191,148.88 250,148.88Z" style="fill:white"/>
</svg>
